<mxfile host="Electron" agent="Mozilla/5.0 (X11; Linux x86_64) AppleWebKit/537.36 (KHTML, like Gecko) draw.io/26.0.16 Chrome/132.0.6834.196 Electron/34.2.0 Safari/537.36" version="26.0.16">
  <diagram name="Page-1" id="o48qNDvrozVpTbHQ7NAs">
    <mxGraphModel dx="4805" dy="2198" grid="0" gridSize="10" guides="1" tooltips="1" connect="1" arrows="1" fold="1" page="0" pageScale="1" pageWidth="850" pageHeight="1100" math="0" shadow="0">
      <root>
        <mxCell id="0" />
        <mxCell id="mpewLZQNkSZdXee6RcOe-9" value="0 Accounts" parent="0" />
        <mxCell id="mpewLZQNkSZdXee6RcOe-12" value="" style="rounded=0;whiteSpace=wrap;html=1;" parent="mpewLZQNkSZdXee6RcOe-9" vertex="1">
          <mxGeometry x="660" y="1260" width="1170" height="790" as="geometry" />
        </mxCell>
        <mxCell id="mpewLZQNkSZdXee6RcOe-10" value="" style="rounded=0;whiteSpace=wrap;html=1;" parent="mpewLZQNkSZdXee6RcOe-9" vertex="1">
          <mxGeometry x="210" y="170" width="720" height="890" as="geometry" />
        </mxCell>
        <mxCell id="I-tRKezz4Z4yK1eZcgT6-58" value="&lt;font style=&quot;font-size: 36px;&quot;&gt;Hub account&lt;/font&gt;" style="text;html=1;align=center;verticalAlign=middle;resizable=0;points=[];autosize=1;strokeColor=none;fillColor=none;" parent="mpewLZQNkSZdXee6RcOe-9" vertex="1">
          <mxGeometry x="455" y="90" width="230" height="60" as="geometry" />
        </mxCell>
        <mxCell id="I-tRKezz4Z4yK1eZcgT6-59" value="&lt;font style=&quot;font-size: 36px;&quot;&gt;Spoke account A&lt;/font&gt;" style="text;html=1;align=right;verticalAlign=middle;resizable=0;points=[];autosize=1;strokeColor=none;fillColor=none;" parent="mpewLZQNkSZdXee6RcOe-9" vertex="1">
          <mxGeometry x="229" y="2080" width="290" height="60" as="geometry" />
        </mxCell>
        <mxCell id="I-tRKezz4Z4yK1eZcgT6-60" value="&lt;font style=&quot;font-size: 36px;&quot;&gt;Spoke account B&lt;/font&gt;" style="text;html=1;align=left;verticalAlign=middle;resizable=0;points=[];autosize=1;strokeColor=none;fillColor=none;" parent="mpewLZQNkSZdXee6RcOe-9" vertex="1">
          <mxGeometry x="661" y="2076" width="300" height="60" as="geometry" />
        </mxCell>
        <mxCell id="lwJLD3MO1rkRZbUrMy6s-21" value="" style="rounded=0;whiteSpace=wrap;html=1;" parent="mpewLZQNkSZdXee6RcOe-9" vertex="1">
          <mxGeometry x="-670" y="1260" width="1190" height="790" as="geometry" />
        </mxCell>
        <mxCell id="1" value="1 RAM_Share" parent="0" />
        <mxCell id="mpewLZQNkSZdXee6RcOe-13" value="RAM&lt;br&gt;Resource Share" style="sketch=0;points=[[0,0,0],[0.25,0,0],[0.5,0,0],[0.75,0,0],[1,0,0],[0,1,0],[0.25,1,0],[0.5,1,0],[0.75,1,0],[1,1,0],[0,0.25,0],[0,0.5,0],[0,0.75,0],[1,0.25,0],[1,0.5,0],[1,0.75,0]];outlineConnect=0;fontColor=#232F3E;fillColor=#DD344C;strokeColor=#ffffff;dashed=0;verticalLabelPosition=bottom;verticalAlign=top;align=center;html=1;fontSize=12;fontStyle=0;aspect=fixed;shape=mxgraph.aws4.resourceIcon;resIcon=mxgraph.aws4.resource_access_manager;" parent="1" vertex="1">
          <mxGeometry x="530" y="200" width="78" height="78" as="geometry" />
        </mxCell>
        <mxCell id="mpewLZQNkSZdXee6RcOe-14" value="RAM&lt;br&gt;Resource Share&lt;br&gt;Accepter" style="sketch=0;points=[[0,0,0],[0.25,0,0],[0.5,0,0],[0.75,0,0],[1,0,0],[0,1,0],[0.25,1,0],[0.5,1,0],[0.75,1,0],[1,1,0],[0,0.25,0],[0,0.5,0],[0,0.75,0],[1,0.25,0],[1,0.5,0],[1,0.75,0]];outlineConnect=0;fontColor=#232F3E;fillColor=#999999;strokeColor=#ffffff;dashed=0;verticalLabelPosition=bottom;verticalAlign=top;align=center;html=1;fontSize=12;fontStyle=0;aspect=fixed;shape=mxgraph.aws4.resourceIcon;resIcon=mxgraph.aws4.resource_access_manager;" parent="1" vertex="1">
          <mxGeometry x="261" y="1290" width="78" height="78" as="geometry" />
        </mxCell>
        <mxCell id="mpewLZQNkSZdXee6RcOe-15" value="RAM&lt;br style=&quot;border-color: var(--border-color);&quot;&gt;Resource Share&lt;br style=&quot;border-color: var(--border-color);&quot;&gt;Accepter" style="sketch=0;points=[[0,0,0],[0.25,0,0],[0.5,0,0],[0.75,0,0],[1,0,0],[0,1,0],[0.25,1,0],[0.5,1,0],[0.75,1,0],[1,1,0],[0,0.25,0],[0,0.5,0],[0,0.75,0],[1,0.25,0],[1,0.5,0],[1,0.75,0]];outlineConnect=0;fontColor=#232F3E;fillColor=#999999;strokeColor=#ffffff;dashed=0;verticalLabelPosition=bottom;verticalAlign=top;align=center;html=1;fontSize=12;fontStyle=0;aspect=fixed;shape=mxgraph.aws4.resourceIcon;resIcon=mxgraph.aws4.resource_access_manager;" parent="1" vertex="1">
          <mxGeometry x="801" y="1290" width="78" height="78" as="geometry" />
        </mxCell>
        <mxCell id="mpewLZQNkSZdXee6RcOe-20" value="2 VPC" parent="0" />
        <mxCell id="mpewLZQNkSZdXee6RcOe-23" value="VPC" style="points=[[0,0],[0.25,0],[0.5,0],[0.75,0],[1,0],[1,0.25],[1,0.5],[1,0.75],[1,1],[0.75,1],[0.5,1],[0.25,1],[0,1],[0,0.75],[0,0.5],[0,0.25]];outlineConnect=0;gradientColor=none;html=1;whiteSpace=wrap;fontSize=12;fontStyle=0;container=1;pointerEvents=0;collapsible=0;recursiveResize=0;shape=mxgraph.aws4.group;grIcon=mxgraph.aws4.group_vpc;strokeColor=#248814;fillColor=none;verticalAlign=top;align=left;spacingLeft=30;fontColor=#AAB7B8;dashed=0;" parent="mpewLZQNkSZdXee6RcOe-20" vertex="1">
          <mxGeometry x="350" y="340" width="440" height="580" as="geometry" />
        </mxCell>
        <mxCell id="I-tRKezz4Z4yK1eZcgT6-41" value="192.168.0.2" style="html=1;verticalLabelPosition=bottom;align=center;labelBackgroundColor=#ffffff;verticalAlign=top;strokeWidth=2;strokeColor=#0080F0;shadow=0;dashed=0;shape=mxgraph.ios7.icons.mail;" parent="mpewLZQNkSZdXee6RcOe-20" vertex="1">
          <mxGeometry x="700" y="810" width="40" height="26.5" as="geometry" />
        </mxCell>
        <mxCell id="lwJLD3MO1rkRZbUrMy6s-9" value="Private subnet" style="points=[[0,0],[0.25,0],[0.5,0],[0.75,0],[1,0],[1,0.25],[1,0.5],[1,0.75],[1,1],[0.75,1],[0.5,1],[0.25,1],[0,1],[0,0.75],[0,0.5],[0,0.25]];outlineConnect=0;gradientColor=none;html=1;whiteSpace=wrap;fontSize=12;fontStyle=0;container=1;pointerEvents=0;collapsible=0;recursiveResize=0;shape=mxgraph.aws4.group;grIcon=mxgraph.aws4.group_security_group;grStroke=0;strokeColor=#147EBA;fillColor=#E6F2F8;verticalAlign=top;align=left;spacingLeft=30;fontColor=#147EBA;dashed=0;" parent="mpewLZQNkSZdXee6RcOe-20" vertex="1">
          <mxGeometry x="590" y="380" width="170" height="220" as="geometry" />
        </mxCell>
        <mxCell id="lwJLD3MO1rkRZbUrMy6s-10" value="Private subnet" style="points=[[0,0],[0.25,0],[0.5,0],[0.75,0],[1,0],[1,0.25],[1,0.5],[1,0.75],[1,1],[0.75,1],[0.5,1],[0.25,1],[0,1],[0,0.75],[0,0.5],[0,0.25]];outlineConnect=0;gradientColor=none;html=1;whiteSpace=wrap;fontSize=12;fontStyle=0;container=1;pointerEvents=0;collapsible=0;recursiveResize=0;shape=mxgraph.aws4.group;grIcon=mxgraph.aws4.group_security_group;grStroke=0;strokeColor=#147EBA;fillColor=#E6F2F8;verticalAlign=top;align=left;spacingLeft=30;fontColor=#147EBA;dashed=0;" parent="mpewLZQNkSZdXee6RcOe-20" vertex="1">
          <mxGeometry x="380" y="380" width="170" height="220" as="geometry" />
        </mxCell>
        <mxCell id="lwJLD3MO1rkRZbUrMy6s-11" value="Security Group" style="fontStyle=0;verticalAlign=top;align=center;spacingTop=-2;fillColor=none;rounded=0;whiteSpace=wrap;html=1;strokeColor=#FF0000;strokeWidth=2;dashed=1;container=1;collapsible=0;expand=0;recursiveResize=0;" parent="mpewLZQNkSZdXee6RcOe-20" vertex="1">
          <mxGeometry x="370" y="630" width="400" height="130" as="geometry" />
        </mxCell>
        <mxCell id="mpewLZQNkSZdXee6RcOe-34" value="3 Resolver endpoints" parent="0" />
        <mxCell id="mpewLZQNkSZdXee6RcOe-35" value="Resolver&lt;br&gt;Inbound" style="outlineConnect=0;dashed=0;verticalLabelPosition=bottom;verticalAlign=top;align=center;html=1;shape=mxgraph.aws3.endpoints;fillColor=#009900;gradientColor=none;" parent="mpewLZQNkSZdXee6RcOe-34" vertex="1">
          <mxGeometry x="560" y="792" width="69" height="72" as="geometry" />
        </mxCell>
        <mxCell id="mpewLZQNkSZdXee6RcOe-36" value="Resolver&lt;br&gt;Outbound" style="outlineConnect=0;dashed=0;verticalLabelPosition=bottom;verticalAlign=top;align=center;html=1;shape=mxgraph.aws3.endpoints;fillColor=#007FFF;gradientColor=none;" parent="mpewLZQNkSZdXee6RcOe-34" vertex="1">
          <mxGeometry x="431" y="792" width="69" height="72" as="geometry" />
        </mxCell>
        <mxCell id="mpewLZQNkSZdXee6RcOe-38" value="4 Resolver rule" parent="0" />
        <mxCell id="mpewLZQNkSZdXee6RcOe-46" value="" style="sketch=0;outlineConnect=0;fontColor=#232F3E;gradientColor=none;fillColor=#E7157B;strokeColor=none;dashed=0;verticalLabelPosition=bottom;verticalAlign=top;align=center;html=1;fontSize=12;fontStyle=0;aspect=fixed;pointerEvents=1;shape=mxgraph.aws4.rule_2;" parent="mpewLZQNkSZdXee6RcOe-38" vertex="1">
          <mxGeometry x="690" y="930" width="78" height="76" as="geometry" />
        </mxCell>
        <mxCell id="zYDDt988uHkB1wk0pOOb-1" value="5 Rule RAM shared" parent="0" />
        <mxCell id="zYDDt988uHkB1wk0pOOb-3" value="&lt;font color=&quot;#ff0000&quot; style=&quot;font-size: 20px;&quot;&gt;&lt;b&gt;RAM Shared&lt;/b&gt;&lt;/font&gt;" style="text;html=1;align=center;verticalAlign=middle;resizable=0;points=[];autosize=1;strokeColor=none;fillColor=none;" parent="zYDDt988uHkB1wk0pOOb-1" vertex="1">
          <mxGeometry x="660" y="1010" width="140" height="40" as="geometry" />
        </mxCell>
        <mxCell id="zYDDt988uHkB1wk0pOOb-4" value="" style="sketch=0;outlineConnect=0;fontColor=#232F3E;gradientColor=none;fillColor=#999999;strokeColor=none;dashed=0;verticalLabelPosition=bottom;verticalAlign=top;align=center;html=1;fontSize=12;fontStyle=0;aspect=fixed;pointerEvents=1;shape=mxgraph.aws4.rule_2;" parent="zYDDt988uHkB1wk0pOOb-1" vertex="1">
          <mxGeometry x="991" y="1290" width="78" height="76" as="geometry" />
        </mxCell>
        <mxCell id="zYDDt988uHkB1wk0pOOb-5" value="" style="sketch=0;outlineConnect=0;fontColor=#232F3E;gradientColor=none;fillColor=#999999;strokeColor=none;dashed=0;verticalLabelPosition=bottom;verticalAlign=top;align=center;html=1;fontSize=12;fontStyle=0;aspect=fixed;pointerEvents=1;shape=mxgraph.aws4.rule_2;" parent="zYDDt988uHkB1wk0pOOb-1" vertex="1">
          <mxGeometry x="-69" y="1300" width="78" height="76" as="geometry" />
        </mxCell>
        <mxCell id="mpewLZQNkSZdXee6RcOe-51" value="6 account_a VPC" parent="0" />
        <mxCell id="mpewLZQNkSZdXee6RcOe-52" value="VPC" style="points=[[0,0],[0.25,0],[0.5,0],[0.75,0],[1,0],[1,0.25],[1,0.5],[1,0.75],[1,1],[0.75,1],[0.5,1],[0.25,1],[0,1],[0,0.75],[0,0.5],[0,0.25]];outlineConnect=0;gradientColor=none;html=1;whiteSpace=wrap;fontSize=12;fontStyle=0;container=1;pointerEvents=0;collapsible=0;recursiveResize=0;shape=mxgraph.aws4.group;grIcon=mxgraph.aws4.group_vpc;strokeColor=#248814;fillColor=none;verticalAlign=top;align=left;spacingLeft=30;fontColor=#AAB7B8;dashed=0;" parent="mpewLZQNkSZdXee6RcOe-51" vertex="1">
          <mxGeometry x="-510" y="1460" width="840" height="430" as="geometry" />
        </mxCell>
        <mxCell id="I-tRKezz4Z4yK1eZcgT6-65" value="192.168.1.2" style="html=1;verticalLabelPosition=bottom;align=center;labelBackgroundColor=#ffffff;verticalAlign=top;strokeWidth=2;strokeColor=#0080F0;shadow=0;dashed=0;shape=mxgraph.ios7.icons.mail;" parent="mpewLZQNkSZdXee6RcOe-51" vertex="1">
          <mxGeometry x="60" y="1530" width="40" height="26.5" as="geometry" />
        </mxCell>
        <mxCell id="lwJLD3MO1rkRZbUrMy6s-2" style="edgeStyle=orthogonalEdgeStyle;rounded=0;orthogonalLoop=1;jettySize=auto;html=1;" parent="mpewLZQNkSZdXee6RcOe-51" edge="1">
          <mxGeometry relative="1" as="geometry">
            <Array as="points">
              <mxPoint x="-30" y="1440" />
              <mxPoint x="-30" y="1440" />
            </Array>
            <mxPoint x="-30" y="1460" as="targetPoint" />
            <mxPoint x="-30" y="1376" as="sourcePoint" />
          </mxGeometry>
        </mxCell>
        <mxCell id="lwJLD3MO1rkRZbUrMy6s-3" value="7 tgw in hub" parent="0" />
        <mxCell id="lwJLD3MO1rkRZbUrMy6s-4" value="" style="sketch=0;points=[[0,0,0],[0.25,0,0],[0.5,0,0],[0.75,0,0],[1,0,0],[0,1,0],[0.25,1,0],[0.5,1,0],[0.75,1,0],[1,1,0],[0,0.25,0],[0,0.5,0],[0,0.75,0],[1,0.25,0],[1,0.5,0],[1,0.75,0]];outlineConnect=0;fontColor=#232F3E;fillColor=#8C4FFF;strokeColor=#ffffff;dashed=0;verticalLabelPosition=bottom;verticalAlign=top;align=center;html=1;fontSize=12;fontStyle=0;aspect=fixed;shape=mxgraph.aws4.resourceIcon;resIcon=mxgraph.aws4.transit_gateway;" parent="lwJLD3MO1rkRZbUrMy6s-3" vertex="1">
          <mxGeometry x="530" y="930" width="78" height="78" as="geometry" />
        </mxCell>
        <mxCell id="lwJLD3MO1rkRZbUrMy6s-5" value="" style="sketch=0;points=[[0,0,0],[0.25,0,0],[0.5,0,0],[0.75,0,0],[1,0,0],[0,1,0],[0.25,1,0],[0.5,1,0],[0.75,1,0],[1,1,0],[0,0.25,0],[0,0.5,0],[0,0.75,0],[1,0.25,0],[1,0.5,0],[1,0.75,0]];outlineConnect=0;fontColor=#232F3E;fillColor=#B3B3B3;strokeColor=#ffffff;dashed=0;verticalLabelPosition=bottom;verticalAlign=top;align=center;html=1;fontSize=12;fontStyle=0;aspect=fixed;shape=mxgraph.aws4.resourceIcon;resIcon=mxgraph.aws4.transit_gateway;" parent="lwJLD3MO1rkRZbUrMy6s-3" vertex="1">
          <mxGeometry x="386" y="1460" width="78" height="78" as="geometry" />
        </mxCell>
        <mxCell id="lwJLD3MO1rkRZbUrMy6s-6" value="" style="sketch=0;points=[[0,0,0],[0.25,0,0],[0.5,0,0],[0.75,0,0],[1,0,0],[0,1,0],[0.25,1,0],[0.5,1,0],[0.75,1,0],[1,1,0],[0,0.25,0],[0,0.5,0],[0,0.75,0],[1,0.25,0],[1,0.5,0],[1,0.75,0]];outlineConnect=0;fontColor=#232F3E;fillColor=#B3B3B3;strokeColor=#ffffff;dashed=0;verticalLabelPosition=bottom;verticalAlign=top;align=center;html=1;fontSize=12;fontStyle=0;aspect=fixed;shape=mxgraph.aws4.resourceIcon;resIcon=mxgraph.aws4.transit_gateway;" parent="lwJLD3MO1rkRZbUrMy6s-3" vertex="1">
          <mxGeometry x="706" y="1460" width="78" height="78" as="geometry" />
        </mxCell>
        <mxCell id="zYDDt988uHkB1wk0pOOb-7" value="&lt;font color=&quot;#ff0000&quot; style=&quot;font-size: 20px;&quot;&gt;&lt;b&gt;RAM Shared&lt;/b&gt;&lt;/font&gt;" style="text;html=1;align=center;verticalAlign=middle;resizable=0;points=[];autosize=1;strokeColor=none;fillColor=none;" parent="lwJLD3MO1rkRZbUrMy6s-3" vertex="1">
          <mxGeometry x="495" y="1010" width="140" height="40" as="geometry" />
        </mxCell>
        <mxCell id="mpewLZQNkSZdXee6RcOe-56" value="8 NS &amp; HZ" parent="0" />
        <mxCell id="mpewLZQNkSZdXee6RcOe-57" value="Private&lt;br&gt;Hosted Zone" style="outlineConnect=0;dashed=0;verticalLabelPosition=bottom;verticalAlign=top;align=center;html=1;shape=mxgraph.aws3.hosted_zone;fillColor=#F58536;gradientColor=none;" parent="mpewLZQNkSZdXee6RcOe-56" vertex="1">
          <mxGeometry x="-410" y="1300" width="123" height="110" as="geometry" />
        </mxCell>
        <mxCell id="mpewLZQNkSZdXee6RcOe-58" value="Private&lt;br style=&quot;border-color: var(--border-color);&quot;&gt;Hosted Zone" style="outlineConnect=0;dashed=0;verticalLabelPosition=bottom;verticalAlign=top;align=center;html=1;shape=mxgraph.aws3.hosted_zone;fillColor=#F58536;gradientColor=none;" parent="mpewLZQNkSZdXee6RcOe-56" vertex="1">
          <mxGeometry x="1340" y="1300" width="123" height="110" as="geometry" />
        </mxCell>
        <mxCell id="I-tRKezz4Z4yK1eZcgT6-42" style="edgeStyle=orthogonalEdgeStyle;rounded=0;orthogonalLoop=1;jettySize=auto;html=1;" parent="mpewLZQNkSZdXee6RcOe-56" source="I-tRKezz4Z4yK1eZcgT6-43" edge="1">
          <mxGeometry relative="1" as="geometry">
            <mxPoint x="-410" y="1355" as="targetPoint" />
          </mxGeometry>
        </mxCell>
        <mxCell id="I-tRKezz4Z4yK1eZcgT6-43" value="CloudMap namespace" style="sketch=0;outlineConnect=0;fontColor=#232F3E;gradientColor=none;fillColor=#8C4FFF;strokeColor=none;dashed=0;verticalLabelPosition=bottom;verticalAlign=top;align=center;html=1;fontSize=12;fontStyle=0;aspect=fixed;pointerEvents=1;shape=mxgraph.aws4.namespace;" parent="mpewLZQNkSZdXee6RcOe-56" vertex="1">
          <mxGeometry x="-600" y="1316" width="78" height="78" as="geometry" />
        </mxCell>
        <mxCell id="I-tRKezz4Z4yK1eZcgT6-44" style="edgeStyle=orthogonalEdgeStyle;rounded=0;orthogonalLoop=1;jettySize=auto;html=1;entryX=0.96;entryY=0.5;entryDx=0;entryDy=0;entryPerimeter=0;" parent="mpewLZQNkSZdXee6RcOe-56" edge="1">
          <mxGeometry relative="1" as="geometry">
            <mxPoint x="1640.136060894386" y="1355" as="sourcePoint" />
            <mxPoint x="1458" y="1355" as="targetPoint" />
          </mxGeometry>
        </mxCell>
        <mxCell id="I-tRKezz4Z4yK1eZcgT6-45" value="CloudMap namespace" style="sketch=0;outlineConnect=0;fontColor=#232F3E;gradientColor=none;fillColor=#8C4FFF;strokeColor=none;dashed=0;verticalLabelPosition=bottom;verticalAlign=top;align=center;html=1;fontSize=12;fontStyle=0;aspect=fixed;pointerEvents=1;shape=mxgraph.aws4.namespace;" parent="mpewLZQNkSZdXee6RcOe-56" vertex="1">
          <mxGeometry x="1640" y="1316" width="78" height="78" as="geometry" />
        </mxCell>
        <mxCell id="I-tRKezz4Z4yK1eZcgT6-66" value="&lt;font style=&quot;font-size: 20px;&quot;&gt;acc2.example.local&lt;/font&gt;" style="text;html=1;align=center;verticalAlign=middle;resizable=0;points=[];autosize=1;strokeColor=none;fillColor=none;" parent="mpewLZQNkSZdXee6RcOe-56" vertex="1">
          <mxGeometry x="-290" y="1335" width="190" height="40" as="geometry" />
        </mxCell>
        <mxCell id="I-tRKezz4Z4yK1eZcgT6-67" value="&lt;font style=&quot;font-size: 20px;&quot;&gt;acc3.example.local&lt;/font&gt;" style="text;html=1;align=center;verticalAlign=middle;resizable=0;points=[];autosize=1;strokeColor=none;fillColor=none;" parent="mpewLZQNkSZdXee6RcOe-56" vertex="1">
          <mxGeometry x="1150" y="1335" width="190" height="40" as="geometry" />
        </mxCell>
        <mxCell id="lwJLD3MO1rkRZbUrMy6s-7" style="rounded=0;orthogonalLoop=1;jettySize=auto;html=1;entryX=0;entryY=0.5;entryDx=0;entryDy=0;strokeWidth=10;strokeColor=#009900;" parent="mpewLZQNkSZdXee6RcOe-56" edge="1">
          <mxGeometry relative="1" as="geometry">
            <mxPoint x="-296" y="1300" as="sourcePoint" />
            <mxPoint x="350" y="630" as="targetPoint" />
          </mxGeometry>
        </mxCell>
        <mxCell id="lwJLD3MO1rkRZbUrMy6s-8" style="rounded=0;orthogonalLoop=1;jettySize=auto;html=1;entryX=1;entryY=0.5;entryDx=0;entryDy=0;strokeWidth=10;strokeColor=#009900;" parent="mpewLZQNkSZdXee6RcOe-56" edge="1">
          <mxGeometry relative="1" as="geometry">
            <mxPoint x="1355" y="1300" as="sourcePoint" />
            <mxPoint x="790" y="630" as="targetPoint" />
          </mxGeometry>
        </mxCell>
        <mxCell id="mpewLZQNkSZdXee6RcOe-63" value="9 * assocation authorization" parent="0" />
        <mxCell id="mpewLZQNkSZdXee6RcOe-64" value="" style="fillColor=#28A8E0;verticalLabelPosition=bottom;sketch=0;html=1;strokeColor=#ffffff;verticalAlign=top;align=center;points=[[0.145,0.145,0],[0.5,0,0],[0.855,0.145,0],[1,0.5,0],[0.855,0.855,0],[0.5,1,0],[0.145,0.855,0],[0,0.5,0]];pointerEvents=1;shape=mxgraph.cisco_safe.compositeIcon;bgIcon=ellipse;resIcon=mxgraph.cisco_safe.capability.identity_authorization;" parent="mpewLZQNkSZdXee6RcOe-63" vertex="1">
          <mxGeometry x="-70" y="940" width="119" height="119" as="geometry" />
        </mxCell>
        <mxCell id="mpewLZQNkSZdXee6RcOe-65" value="" style="fillColor=#28A8E0;verticalLabelPosition=bottom;sketch=0;html=1;strokeColor=#ffffff;verticalAlign=top;align=center;points=[[0.145,0.145,0],[0.5,0,0],[0.855,0.145,0],[1,0.5,0],[0.855,0.855,0],[0.5,1,0],[0.145,0.855,0],[0,0.5,0]];pointerEvents=1;shape=mxgraph.cisco_safe.compositeIcon;bgIcon=ellipse;resIcon=mxgraph.cisco_safe.capability.identity_authorization;" parent="mpewLZQNkSZdXee6RcOe-63" vertex="1">
          <mxGeometry x="1049" y="951" width="119" height="119" as="geometry" />
        </mxCell>
        <mxCell id="zYDDt988uHkB1wk0pOOb-11" value="VPC" style="points=[[0,0],[0.25,0],[0.5,0],[0.75,0],[1,0],[1,0.25],[1,0.5],[1,0.75],[1,1],[0.75,1],[0.5,1],[0.25,1],[0,1],[0,0.75],[0,0.5],[0,0.25]];outlineConnect=0;gradientColor=none;html=1;whiteSpace=wrap;fontSize=12;fontStyle=0;container=0;pointerEvents=0;collapsible=0;recursiveResize=0;shape=mxgraph.aws4.group;grIcon=mxgraph.aws4.group_vpc;strokeColor=#248814;fillColor=none;verticalAlign=top;align=left;spacingLeft=30;fontColor=#AAB7B8;dashed=0;" parent="mpewLZQNkSZdXee6RcOe-63" vertex="1">
          <mxGeometry x="820" y="1460" width="840" height="430" as="geometry" />
        </mxCell>
        <mxCell id="zYDDt988uHkB1wk0pOOb-12" value="192.168.2.2" style="html=1;verticalLabelPosition=bottom;align=center;labelBackgroundColor=#ffffff;verticalAlign=top;strokeWidth=2;strokeColor=#0080F0;shadow=0;dashed=0;shape=mxgraph.ios7.icons.mail;" parent="mpewLZQNkSZdXee6RcOe-63" vertex="1">
          <mxGeometry x="1390" y="1530" width="40" height="26.5" as="geometry" />
        </mxCell>
        <mxCell id="zYDDt988uHkB1wk0pOOb-13" value="9 Delete authorization" parent="0" />
        <mxCell id="zYDDt988uHkB1wk0pOOb-16" value="" style="verticalLabelPosition=bottom;verticalAlign=top;html=1;shape=mxgraph.basic.x;strokeColor=#FF0000;fillColor=#FF0000;" parent="zYDDt988uHkB1wk0pOOb-13" vertex="1">
          <mxGeometry x="-40" y="970" width="60" height="60" as="geometry" />
        </mxCell>
        <mxCell id="zYDDt988uHkB1wk0pOOb-17" value="" style="verticalLabelPosition=bottom;verticalAlign=top;html=1;shape=mxgraph.basic.x;strokeColor=#FF0000;fillColor=#FF0000;" parent="zYDDt988uHkB1wk0pOOb-13" vertex="1">
          <mxGeometry x="1081" y="982" width="60" height="60" as="geometry" />
        </mxCell>
        <mxCell id="lwJLD3MO1rkRZbUrMy6s-13" value="10 acc a foundational" parent="0" />
        <mxCell id="lwJLD3MO1rkRZbUrMy6s-14" style="rounded=0;orthogonalLoop=1;jettySize=auto;html=1;endArrow=none;endFill=0;" parent="lwJLD3MO1rkRZbUrMy6s-13" target="lwJLD3MO1rkRZbUrMy6s-16" edge="1">
          <mxGeometry relative="1" as="geometry">
            <mxPoint x="554.346820809249" y="1038" as="sourcePoint" />
          </mxGeometry>
        </mxCell>
        <mxCell id="lwJLD3MO1rkRZbUrMy6s-15" style="rounded=0;orthogonalLoop=1;jettySize=auto;html=1;endArrow=none;endFill=0;entryX=1;entryY=0;entryDx=0;entryDy=0;" parent="lwJLD3MO1rkRZbUrMy6s-13" source="lwJLD3MO1rkRZbUrMy6s-16" edge="1">
          <mxGeometry relative="1" as="geometry">
            <mxPoint x="330" y="1460" as="targetPoint" />
          </mxGeometry>
        </mxCell>
        <mxCell id="lwJLD3MO1rkRZbUrMy6s-16" value="" style="sketch=0;outlineConnect=0;fontColor=#232F3E;gradientColor=none;fillColor=#8C4FFF;strokeColor=none;dashed=0;verticalLabelPosition=bottom;verticalAlign=top;align=center;html=1;fontSize=12;fontStyle=0;aspect=fixed;pointerEvents=1;shape=mxgraph.aws4.transit_gateway_attachment;" parent="lwJLD3MO1rkRZbUrMy6s-13" vertex="1">
          <mxGeometry x="400" y="1306" width="78" height="78" as="geometry" />
        </mxCell>
        <mxCell id="lwJLD3MO1rkRZbUrMy6s-18" value="Route table" style="outlineConnect=0;dashed=0;verticalLabelPosition=bottom;verticalAlign=top;align=center;html=1;shape=mxgraph.aws3.route_table;fillColor=#F58536;gradientColor=none;" parent="lwJLD3MO1rkRZbUrMy6s-13" vertex="1">
          <mxGeometry x="-20" y="1740" width="75" height="69" as="geometry" />
        </mxCell>
        <mxCell id="lwJLD3MO1rkRZbUrMy6s-19" value="Security Group" style="fontStyle=0;verticalAlign=top;align=center;spacingTop=-2;fillColor=none;rounded=0;whiteSpace=wrap;html=1;strokeColor=#FF0000;strokeWidth=2;dashed=1;container=1;collapsible=0;expand=0;recursiveResize=0;" parent="lwJLD3MO1rkRZbUrMy6s-13" vertex="1">
          <mxGeometry x="-20" y="1620" width="210" height="90" as="geometry" />
        </mxCell>
        <mxCell id="lwJLD3MO1rkRZbUrMy6s-20" value="Public subnet" style="points=[[0,0],[0.25,0],[0.5,0],[0.75,0],[1,0],[1,0.25],[1,0.5],[1,0.75],[1,1],[0.75,1],[0.5,1],[0.25,1],[0,1],[0,0.75],[0,0.5],[0,0.25]];outlineConnect=0;gradientColor=none;html=1;whiteSpace=wrap;fontSize=12;fontStyle=0;container=1;pointerEvents=0;collapsible=0;recursiveResize=0;shape=mxgraph.aws4.group;grIcon=mxgraph.aws4.group_security_group;grStroke=0;strokeColor=#248814;fillColor=#E9F3E6;verticalAlign=top;align=left;spacingLeft=30;fontColor=#248814;dashed=0;" parent="lwJLD3MO1rkRZbUrMy6s-13" vertex="1">
          <mxGeometry x="-450" y="1530" width="349" height="280" as="geometry" />
        </mxCell>
        <mxCell id="lwJLD3MO1rkRZbUrMy6s-17" value="" style="outlineConnect=0;dashed=0;verticalLabelPosition=bottom;verticalAlign=top;align=center;html=1;shape=mxgraph.aws3.internet_gateway;fillColor=#F58534;gradientColor=none;" parent="lwJLD3MO1rkRZbUrMy6s-13" vertex="1">
          <mxGeometry x="-138" y="1630" width="69" height="72" as="geometry" />
        </mxCell>
        <mxCell id="zYDDt988uHkB1wk0pOOb-10" value="" style="endArrow=classic;html=1;rounded=0;" parent="lwJLD3MO1rkRZbUrMy6s-13" edge="1">
          <mxGeometry width="50" height="50" relative="1" as="geometry">
            <mxPoint x="-20" y="1774.21" as="sourcePoint" />
            <mxPoint x="-100" y="1774.21" as="targetPoint" />
          </mxGeometry>
        </mxCell>
        <mxCell id="etCVg2rvKN4JmpWz_8Lg-5" value="11 ECR" parent="0" />
        <mxCell id="I-tRKezz4Z4yK1eZcgT6-3" value="ECR" style="sketch=0;points=[[0,0,0],[0.25,0,0],[0.5,0,0],[0.75,0,0],[1,0,0],[0,1,0],[0.25,1,0],[0.5,1,0],[0.75,1,0],[1,1,0],[0,0.25,0],[0,0.5,0],[0,0.75,0],[1,0.25,0],[1,0.5,0],[1,0.75,0]];outlineConnect=0;fontColor=#232F3E;fillColor=#ED7100;strokeColor=#ffffff;dashed=0;verticalLabelPosition=bottom;verticalAlign=top;align=center;html=1;fontSize=12;fontStyle=0;aspect=fixed;shape=mxgraph.aws4.resourceIcon;resIcon=mxgraph.aws4.ecr;" parent="etCVg2rvKN4JmpWz_8Lg-5" vertex="1">
          <mxGeometry x="-510" y="1930" width="78" height="78" as="geometry" />
        </mxCell>
        <mxCell id="I-tRKezz4Z4yK1eZcgT6-5" value="12 acc a ecs task" parent="0" />
        <mxCell id="I-tRKezz4Z4yK1eZcgT6-7" value="&lt;font style=&quot;font-size: 20px;&quot;&gt;&lt;b&gt;servicea.acc2.example.local&lt;/b&gt;&lt;/font&gt;" style="outlineConnect=0;dashed=0;verticalLabelPosition=bottom;verticalAlign=top;align=center;html=1;shape=mxgraph.aws3.ecs;fillColor=#F58534;gradientColor=none;" parent="I-tRKezz4Z4yK1eZcgT6-5" vertex="1">
          <mxGeometry x="-310" y="1630" width="72" height="67.5" as="geometry" />
        </mxCell>
        <mxCell id="lwJLD3MO1rkRZbUrMy6s-34" style="rounded=0;orthogonalLoop=1;jettySize=auto;html=1;" parent="I-tRKezz4Z4yK1eZcgT6-5" edge="1">
          <mxGeometry relative="1" as="geometry">
            <mxPoint x="-296" y="1698" as="targetPoint" />
            <mxPoint x="-446" y="1930" as="sourcePoint" />
          </mxGeometry>
        </mxCell>
        <mxCell id="lwJLD3MO1rkRZbUrMy6s-23" value="13 b foundational" parent="0" />
        <mxCell id="lwJLD3MO1rkRZbUrMy6s-24" style="rounded=0;orthogonalLoop=1;jettySize=auto;html=1;endArrow=none;endFill=0;" parent="lwJLD3MO1rkRZbUrMy6s-23" target="lwJLD3MO1rkRZbUrMy6s-26" edge="1">
          <mxGeometry relative="1" as="geometry">
            <mxPoint x="587.0346820809245" y="1038" as="sourcePoint" />
          </mxGeometry>
        </mxCell>
        <mxCell id="lwJLD3MO1rkRZbUrMy6s-25" style="rounded=0;orthogonalLoop=1;jettySize=auto;html=1;entryX=0;entryY=0;entryDx=0;entryDy=0;endArrow=none;endFill=0;" parent="lwJLD3MO1rkRZbUrMy6s-23" edge="1">
          <mxGeometry relative="1" as="geometry">
            <mxPoint x="749.860869565217" y="1378" as="sourcePoint" />
            <mxPoint x="820" y="1460" as="targetPoint" />
          </mxGeometry>
        </mxCell>
        <mxCell id="lwJLD3MO1rkRZbUrMy6s-26" value="" style="sketch=0;outlineConnect=0;fontColor=#232F3E;gradientColor=none;fillColor=#8C4FFF;strokeColor=none;dashed=0;verticalLabelPosition=bottom;verticalAlign=top;align=center;html=1;fontSize=12;fontStyle=0;aspect=fixed;pointerEvents=1;shape=mxgraph.aws4.transit_gateway_attachment;" parent="lwJLD3MO1rkRZbUrMy6s-23" vertex="1">
          <mxGeometry x="690" y="1306" width="78" height="78" as="geometry" />
        </mxCell>
        <mxCell id="lwJLD3MO1rkRZbUrMy6s-28" value="Public subnet" style="points=[[0,0],[0.25,0],[0.5,0],[0.75,0],[1,0],[1,0.25],[1,0.5],[1,0.75],[1,1],[0.75,1],[0.5,1],[0.25,1],[0,1],[0,0.75],[0,0.5],[0,0.25]];outlineConnect=0;gradientColor=none;html=1;whiteSpace=wrap;fontSize=12;fontStyle=0;container=1;pointerEvents=0;collapsible=0;recursiveResize=0;shape=mxgraph.aws4.group;grIcon=mxgraph.aws4.group_security_group;grStroke=0;strokeColor=#248814;fillColor=#E9F3E6;verticalAlign=top;align=left;spacingLeft=30;fontColor=#248814;dashed=0;" parent="lwJLD3MO1rkRZbUrMy6s-23" vertex="1">
          <mxGeometry x="880" y="1530" width="349" height="280" as="geometry" />
        </mxCell>
        <mxCell id="lwJLD3MO1rkRZbUrMy6s-29" value="Security Group" style="fontStyle=0;verticalAlign=top;align=center;spacingTop=-2;fillColor=none;rounded=0;whiteSpace=wrap;html=1;strokeColor=#FF0000;strokeWidth=2;dashed=1;container=1;collapsible=0;expand=0;recursiveResize=0;" parent="lwJLD3MO1rkRZbUrMy6s-23" vertex="1">
          <mxGeometry x="1310" y="1620" width="210" height="90" as="geometry" />
        </mxCell>
        <mxCell id="lwJLD3MO1rkRZbUrMy6s-30" value="Route table" style="outlineConnect=0;dashed=0;verticalLabelPosition=bottom;verticalAlign=top;align=center;html=1;shape=mxgraph.aws3.route_table;fillColor=#F58536;gradientColor=none;" parent="lwJLD3MO1rkRZbUrMy6s-23" vertex="1">
          <mxGeometry x="1310" y="1740" width="75" height="69" as="geometry" />
        </mxCell>
        <mxCell id="lwJLD3MO1rkRZbUrMy6s-31" value="" style="endArrow=classic;html=1;rounded=0;exitX=0;exitY=0.5;exitDx=0;exitDy=0;exitPerimeter=0;" parent="lwJLD3MO1rkRZbUrMy6s-23" edge="1">
          <mxGeometry width="50" height="50" relative="1" as="geometry">
            <mxPoint x="1310" y="1774.4999999999995" as="sourcePoint" />
            <mxPoint x="1230" y="1775" as="targetPoint" />
          </mxGeometry>
        </mxCell>
        <mxCell id="lwJLD3MO1rkRZbUrMy6s-27" value="" style="outlineConnect=0;dashed=0;verticalLabelPosition=bottom;verticalAlign=top;align=center;html=1;shape=mxgraph.aws3.internet_gateway;fillColor=#F58534;gradientColor=none;" parent="lwJLD3MO1rkRZbUrMy6s-23" vertex="1">
          <mxGeometry x="1190" y="1614" width="69" height="72" as="geometry" />
        </mxCell>
        <mxCell id="I-tRKezz4Z4yK1eZcgT6-26" value="14 b ecr" parent="0" />
        <mxCell id="lwJLD3MO1rkRZbUrMy6s-32" value="ECR" style="sketch=0;points=[[0,0,0],[0.25,0,0],[0.5,0,0],[0.75,0,0],[1,0,0],[0,1,0],[0.25,1,0],[0.5,1,0],[0.75,1,0],[1,1,0],[0,0.25,0],[0,0.5,0],[0,0.75,0],[1,0.25,0],[1,0.5,0],[1,0.75,0]];outlineConnect=0;fontColor=#232F3E;fillColor=#ED7100;strokeColor=#ffffff;dashed=0;verticalLabelPosition=bottom;verticalAlign=top;align=center;html=1;fontSize=12;fontStyle=0;aspect=fixed;shape=mxgraph.aws4.resourceIcon;resIcon=mxgraph.aws4.ecr;" parent="I-tRKezz4Z4yK1eZcgT6-26" vertex="1">
          <mxGeometry x="820" y="1930" width="78" height="78" as="geometry" />
        </mxCell>
        <mxCell id="I-tRKezz4Z4yK1eZcgT6-31" value="15 b ecs" parent="0" />
        <mxCell id="I-tRKezz4Z4yK1eZcgT6-32" value="&lt;b&gt;&lt;font style=&quot;font-size: 20px;&quot;&gt;serviceb.acc3.example.local&lt;/font&gt;&lt;/b&gt;" style="outlineConnect=0;dashed=0;verticalLabelPosition=bottom;verticalAlign=top;align=center;html=1;shape=mxgraph.aws3.ecs;fillColor=#F58534;gradientColor=none;" parent="I-tRKezz4Z4yK1eZcgT6-31" vertex="1">
          <mxGeometry x="1018.5" y="1630" width="72" height="67.5" as="geometry" />
        </mxCell>
        <mxCell id="lwJLD3MO1rkRZbUrMy6s-35" style="rounded=0;orthogonalLoop=1;jettySize=auto;html=1;" parent="I-tRKezz4Z4yK1eZcgT6-31" edge="1">
          <mxGeometry relative="1" as="geometry">
            <mxPoint x="884" y="1930" as="sourcePoint" />
            <mxPoint x="1033" y="1698" as="targetPoint" />
          </mxGeometry>
        </mxCell>
        <mxCell id="I-tRKezz4Z4yK1eZcgT6-46" value="s1" parent="0" />
        <mxCell id="I-tRKezz4Z4yK1eZcgT6-47" value="&lt;font color=&quot;#ff0000&quot; style=&quot;font-size: 36px;&quot;&gt;1&lt;/font&gt;" style="rounded=0;orthogonalLoop=1;jettySize=auto;html=1;entryX=-0.099;entryY=0.769;entryDx=0;entryDy=0;entryPerimeter=0;endArrow=none;endFill=0;strokeWidth=5;strokeColor=#FF0000;" parent="I-tRKezz4Z4yK1eZcgT6-46" edge="1">
          <mxGeometry x="0.4146" relative="1" as="geometry">
            <mxPoint x="-238" y="1651.3836989455822" as="sourcePoint" />
            <mxPoint x="56" y="1550" as="targetPoint" />
            <mxPoint as="offset" />
          </mxGeometry>
        </mxCell>
        <mxCell id="I-tRKezz4Z4yK1eZcgT6-48" value="s2, s3" parent="0" />
        <mxCell id="I-tRKezz4Z4yK1eZcgT6-49" value="&lt;font color=&quot;#ff0000&quot; style=&quot;font-size: 36px;&quot;&gt;2&lt;/font&gt;" style="rounded=0;orthogonalLoop=1;jettySize=auto;html=1;entryX=0.314;entryY=0.015;entryDx=0;entryDy=0;entryPerimeter=0;endArrow=none;endFill=0;strokeWidth=5;strokeColor=#FF0000;dashed=1;" parent="I-tRKezz4Z4yK1eZcgT6-48" edge="1">
          <mxGeometry x="-0.287" y="-5" relative="1" as="geometry">
            <mxPoint x="-10" y="1376" as="sourcePoint" />
            <mxPoint x="73" y="1530" as="targetPoint" />
            <mxPoint y="-1" as="offset" />
          </mxGeometry>
        </mxCell>
        <mxCell id="I-tRKezz4Z4yK1eZcgT6-50" value="&lt;font style=&quot;font-size: 36px;&quot; color=&quot;#ff0000&quot;&gt;3&lt;/font&gt;" style="rounded=0;orthogonalLoop=1;jettySize=auto;html=1;endArrow=none;endFill=0;strokeWidth=5;strokeColor=#FF0000;entryX=0;entryY=0.5;entryDx=0;entryDy=0;entryPerimeter=0;exitX=0.9;exitY=0.415;exitDx=0;exitDy=0;exitPerimeter=0;" parent="I-tRKezz4Z4yK1eZcgT6-48" edge="1">
          <mxGeometry x="0.4471" y="-1" relative="1" as="geometry">
            <mxPoint x="96" y="1541" as="sourcePoint" />
            <mxPoint x="431" y="828" as="targetPoint" />
            <mxPoint y="1" as="offset" />
          </mxGeometry>
        </mxCell>
        <mxCell id="I-tRKezz4Z4yK1eZcgT6-51" value="s4, s5" parent="0" />
        <mxCell id="I-tRKezz4Z4yK1eZcgT6-52" value="&lt;font style=&quot;font-size: 36px;&quot; color=&quot;#ff0000&quot;&gt;4&lt;/font&gt;" style="rounded=0;orthogonalLoop=1;jettySize=auto;html=1;endArrow=none;endFill=0;strokeWidth=5;strokeColor=#FF0000;" parent="I-tRKezz4Z4yK1eZcgT6-51" edge="1">
          <mxGeometry relative="1" as="geometry">
            <mxPoint x="505" y="830" as="sourcePoint" />
            <mxPoint x="555" y="830" as="targetPoint" />
          </mxGeometry>
        </mxCell>
        <mxCell id="I-tRKezz4Z4yK1eZcgT6-53" value="&lt;font color=&quot;#ff0000&quot; style=&quot;font-size: 36px;&quot;&gt;5&lt;/font&gt;" style="rounded=0;orthogonalLoop=1;jettySize=auto;html=1;endArrow=none;endFill=0;strokeWidth=5;strokeColor=#FF0000;" parent="I-tRKezz4Z4yK1eZcgT6-51" edge="1">
          <mxGeometry relative="1" as="geometry">
            <mxPoint x="635" y="830" as="sourcePoint" />
            <mxPoint x="685" y="830" as="targetPoint" />
          </mxGeometry>
        </mxCell>
        <mxCell id="zYDDt988uHkB1wk0pOOb-21" value="&lt;font style=&quot;font-size: 28px;&quot;&gt;Resolver&lt;br&gt;Inbound&lt;/font&gt;" style="outlineConnect=0;dashed=0;verticalLabelPosition=bottom;verticalAlign=top;align=center;html=1;shape=mxgraph.aws3.endpoints;fillColor=#009900;gradientColor=none;" parent="I-tRKezz4Z4yK1eZcgT6-51" vertex="1">
          <mxGeometry x="1080" y="590" width="182.08" height="190" as="geometry" />
        </mxCell>
        <mxCell id="zYDDt988uHkB1wk0pOOb-23" value="&lt;div style=&quot;font-size: 28px;&quot;&gt;&lt;span style=&quot;color: rgb(0, 0, 204); background-color: transparent;&quot;&gt;192.168.0.12&lt;/span&gt;&lt;/div&gt;&lt;div style=&quot;&quot;&gt;&lt;font color=&quot;#0000cc&quot;&gt;&lt;span style=&quot;font-size: 28px;&quot;&gt;192.168.0.221&lt;/span&gt;&lt;/font&gt;&lt;/div&gt;&lt;div style=&quot;font-size: 28px;&quot;&gt;&lt;br&gt;&lt;/div&gt;&lt;div style=&quot;font-size: 28px;&quot;&gt;You can&#39;t choose them manually&lt;/div&gt;&lt;div style=&quot;font-size: 28px;&quot;&gt;&lt;br&gt;&lt;/div&gt;&lt;div style=&quot;font-size: 28px;&quot;&gt;They are randomly selected for&lt;/div&gt;&lt;div style=&quot;font-size: 28px;&quot;&gt;load balancing &amp;amp; high availability&lt;/div&gt;" style="text;html=1;align=left;verticalAlign=middle;resizable=0;points=[];autosize=1;strokeColor=none;fillColor=none;" parent="I-tRKezz4Z4yK1eZcgT6-51" vertex="1">
          <mxGeometry x="1275" y="592" width="423" height="247" as="geometry" />
        </mxCell>
        <mxCell id="I-tRKezz4Z4yK1eZcgT6-54" value="s6, s7" parent="0" />
        <mxCell id="I-tRKezz4Z4yK1eZcgT6-55" value="&lt;font color=&quot;#ff0000&quot; style=&quot;font-size: 36px;&quot;&gt;6&lt;/font&gt;" style="rounded=0;orthogonalLoop=1;jettySize=auto;html=1;endArrow=none;endFill=0;strokeWidth=5;strokeColor=#FF0000;" parent="I-tRKezz4Z4yK1eZcgT6-54" edge="1">
          <mxGeometry relative="1" as="geometry">
            <mxPoint x="750" y="830" as="sourcePoint" />
            <mxPoint x="1340" y="1305" as="targetPoint" />
          </mxGeometry>
        </mxCell>
        <mxCell id="I-tRKezz4Z4yK1eZcgT6-56" value="&lt;font color=&quot;#ff0000&quot; style=&quot;font-size: 36px;&quot;&gt;7&lt;/font&gt;" style="rounded=0;orthogonalLoop=1;jettySize=auto;html=1;entryX=-0.099;entryY=0.769;entryDx=0;entryDy=0;entryPerimeter=0;endArrow=none;endFill=0;strokeWidth=5;strokeColor=#FF0000;" parent="I-tRKezz4Z4yK1eZcgT6-54" edge="1">
          <mxGeometry x="0.2358" y="-3" relative="1" as="geometry">
            <mxPoint x="1091" y="1631" as="sourcePoint" />
            <mxPoint x="1344" y="1399" as="targetPoint" />
            <mxPoint x="1" as="offset" />
          </mxGeometry>
        </mxCell>
      </root>
    </mxGraphModel>
  </diagram>
</mxfile>
